<svg xmlns="http://www.w3.org/2000/svg" xmlns:xlink="http://www.w3.org/1999/xlink" width="320" zoomAndPan="magnify" viewBox="0 0 240 98.999996" height="132" preserveAspectRatio="xMidYMid meet" version="1.0"><defs><g/><clipPath id="id1"><path d="M 66 3.238281 L 78 3.238281 L 78 6 L 66 6 Z M 66 3.238281 " clip-rule="nonzero"/></clipPath><clipPath id="id2"><path d="M 53 3.238281 L 65 3.238281 L 65 5 L 53 5 Z M 53 3.238281 " clip-rule="nonzero"/></clipPath><clipPath id="id3"><path d="M 9.898438 43 L 12 43 L 12 56 L 9.898438 56 Z M 9.898438 43 " clip-rule="nonzero"/></clipPath><clipPath id="id4"><path d="M 9.898438 51 L 11 51 L 11 63 L 9.898438 63 Z M 9.898438 51 " clip-rule="nonzero"/></clipPath><clipPath id="id5"><path d="M 19 82 L 27 82 L 27 88.050781 L 19 88.050781 Z M 19 82 " clip-rule="nonzero"/></clipPath><clipPath id="id6"><path d="M 113 36 L 114.4375 36 L 114.4375 43 L 113 43 Z M 113 36 " clip-rule="nonzero"/></clipPath><clipPath id="id7"><path d="M 113 36 L 114.4375 36 L 114.4375 39 L 113 39 Z M 113 36 " clip-rule="nonzero"/></clipPath><clipPath id="id8"><path d="M 113 36 L 114.4375 36 L 114.4375 40 L 113 40 Z M 113 36 " clip-rule="nonzero"/></clipPath></defs><path fill="#ff6561" d="M 40.640625 8.828125 C 40.730469 8.53125 40.867188 8.34375 41.042969 8.261719 L 43.425781 7.222656 C 45.660156 6.410156 48.671875 5.410156 50.960938 4.765625 L 52.085938 4.503906 C 51.894531 4.578125 51.753906 4.769531 51.65625 5.078125 C 49.941406 5.671875 47.660156 6.488281 45.988281 7.199219 C 44.371094 7.644531 42.21875 8.261719 40.640625 8.828125 " fill-opacity="1" fill-rule="nonzero"/><path fill="#ff6561" d="M 29.488281 15.785156 C 29.554688 15.566406 29.648438 15.40625 29.769531 15.308594 L 29.808594 15.277344 C 34.308594 11.910156 34.394531 11.847656 36.925781 10.394531 L 39.421875 9.046875 C 39.253906 9.132812 39.125 9.320312 39.035156 9.605469 C 37.488281 10.59375 35.429688 11.929688 33.949219 13.015625 C 32.589844 13.8125 30.78125 14.890625 29.488281 15.785156 " fill-opacity="1" fill-rule="nonzero"/><path fill="#ff6561" d="M 112.449219 34.398438 L 112.496094 34.429688 L 113.539062 36.949219 L 112.449219 34.398438 " fill-opacity="1" fill-rule="nonzero"/><path fill="#ff6561" d="M 109.058594 28.484375 C 109.078125 28.425781 109.101562 28.394531 109.136719 28.378906 C 110.023438 29.878906 111.191406 31.890625 111.988281 33.4375 L 113.539062 36.949219 L 111.925781 33.523438 C 111.089844 31.996094 109.964844 29.96875 109.058594 28.484375 " fill-opacity="1" fill-rule="nonzero"/><path fill="#ff6561" d="M 100.742188 18.539062 C 100.78125 18.410156 100.839844 18.332031 100.917969 18.300781 C 102.125 19.5 103.71875 21.113281 104.851562 22.382812 C 105.871094 23.726562 107.222656 25.523438 108.175781 26.914062 C 108.136719 26.929688 108.105469 26.96875 108.085938 27.035156 C 107.0625 25.726562 105.6875 23.988281 104.582031 22.746094 C 103.453125 21.464844 101.929688 19.765625 100.742188 18.539062 " fill-opacity="1" fill-rule="nonzero"/><path fill="#ff6561" d="M 90.492188 10.972656 C 90.550781 10.78125 90.640625 10.664062 90.757812 10.617188 C 92.210938 11.492188 94.140625 12.671875 95.539062 13.628906 C 96.796875 14.660156 98.46875 16.042969 99.671875 17.140625 C 99.585938 17.171875 99.523438 17.253906 99.480469 17.390625 C 98.183594 16.417969 96.445312 15.128906 95.085938 14.242188 C 93.722656 13.238281 91.898438 11.910156 90.492188 10.972656 " fill-opacity="1" fill-rule="nonzero"/><path fill="#ff6561" d="M 78.832031 6.003906 C 78.90625 5.761719 79.019531 5.613281 79.171875 5.554688 C 80.800781 6.074219 82.972656 6.78125 84.566406 7.398438 C 86 8.085938 87.902344 9.019531 89.289062 9.792969 C 89.167969 9.839844 89.074219 9.960938 89.015625 10.160156 C 87.511719 9.542969 85.496094 8.738281 83.953125 8.222656 C 82.429688 7.53125 80.390625 6.617188 78.832031 6.003906 " fill-opacity="1" fill-rule="nonzero"/><g clip-path="url(#id1)"><path fill="#ff6561" d="M 66.285156 3.847656 C 66.371094 3.566406 66.503906 3.394531 66.675781 3.324219 C 68.367188 3.460938 70.621094 3.648438 72.300781 3.882812 L 72.53125 3.921875 C 74.042969 4.238281 76.0625 4.675781 77.554688 5.089844 C 77.398438 5.148438 77.285156 5.304688 77.207031 5.550781 C 75.5625 5.316406 73.367188 5.023438 71.710938 4.902344 C 70.089844 4.554688 67.921875 4.101562 66.285156 3.847656 " fill-opacity="1" fill-rule="nonzero"/></g><g clip-path="url(#id2)"><path fill="#ff6561" d="M 53.371094 4.722656 C 53.464844 4.414062 53.609375 4.226562 53.796875 4.152344 L 56.023438 3.769531 C 57.316406 3.632812 59.039062 3.398438 60.339844 3.3125 L 61.929688 3.234375 L 64.980469 3.253906 C 64.800781 3.324219 64.667969 3.5 64.582031 3.785156 C 62.867188 3.957031 60.578125 4.203125 58.878906 4.492188 C 57.226562 4.519531 55.019531 4.578125 53.371094 4.722656 " fill-opacity="1" fill-rule="nonzero"/></g><path fill="#ff6561" d="M 20.636719 24.949219 C 20.675781 24.816406 20.726562 24.707031 20.789062 24.625 C 21.652344 23.570312 22.765625 22.140625 23.667969 21.125 C 25.066406 19.683594 26.953125 17.777344 28.441406 16.425781 C 28.328125 16.523438 28.242188 16.675781 28.175781 16.886719 C 26.917969 18.167969 25.257812 19.890625 24.082031 21.246094 C 23.019531 22.332031 21.613281 23.792969 20.636719 24.949219 " fill-opacity="1" fill-rule="nonzero"/><path fill="#ff6561" d="M 112.398438 34.570312 C 112.394531 34.53125 112.394531 34.5 112.394531 34.476562 L 113.539062 36.949219 L 112.398438 34.570312 " fill-opacity="1" fill-rule="nonzero"/><path fill="#ff6561" d="M 105.265625 24.15625 C 105.242188 23.9375 105.230469 23.757812 105.238281 23.613281 C 106.292969 24.886719 107.683594 26.597656 108.652344 27.933594 C 109.558594 29.414062 110.753906 31.394531 111.589844 32.910156 C 111.589844 32.953125 111.589844 33.007812 111.597656 33.066406 C 110.757812 31.71875 109.621094 29.929688 108.691406 28.640625 C 107.683594 27.28125 105.917969 25.71875 105.265625 24.15625 " fill-opacity="1" fill-rule="nonzero"/><path fill="#ff6561" d="M 95.933594 15.945312 C 95.890625 15.566406 95.875 15.253906 95.882812 15 C 97.203125 15.921875 98.953125 17.167969 100.207031 18.171875 C 101.394531 19.402344 102.976562 21.054688 104.109375 22.335938 C 104.105469 22.496094 104.113281 22.695312 104.140625 22.933594 C 103.007812 21.941406 101.488281 20.628906 100.285156 19.726562 C 98.996094 18.574219 96.757812 17.46875 95.933594 15.945312 " fill-opacity="1" fill-rule="nonzero"/><path fill="#ff6561" d="M 84.921875 10.136719 C 84.863281 9.621094 84.839844 9.191406 84.855469 8.84375 C 86.367188 9.394531 88.382812 10.144531 89.851562 10.796875 C 91.265625 11.746094 93.140625 13.023438 94.503906 14.039062 C 94.492188 14.304688 94.511719 14.632812 94.554688 15.03125 C 93.195312 14.414062 91.375 13.605469 89.972656 13.09375 C 88.46875 12.1875 86.457031 10.984375 84.921875 10.136719 " fill-opacity="1" fill-rule="nonzero"/><path fill="#ff6561" d="M 72.757812 6.921875 C 72.6875 6.296875 72.660156 5.773438 72.679688 5.355469 C 74.316406 5.515625 76.5 5.746094 78.121094 6.019531 C 79.683594 6.652344 81.765625 7.511719 83.292969 8.222656 C 83.28125 8.582031 83.300781 9.023438 83.363281 9.554688 C 81.839844 9.328125 79.804688 9.039062 78.269531 8.929688 C 76.625 8.300781 74.429688 7.476562 72.757812 6.921875 " fill-opacity="1" fill-rule="nonzero"/><path fill="#ff6561" d="M 59.960938 6.5 C 59.882812 5.796875 59.851562 5.214844 59.875 4.746094 C 61.566406 4.496094 63.828125 4.183594 65.53125 4.050781 C 67.179688 4.335938 69.375 4.730469 71.003906 5.105469 C 70.984375 5.53125 71.011719 6.0625 71.085938 6.703125 C 69.464844 6.875 67.304688 7.128906 65.703125 7.421875 C 63.988281 7.113281 61.695312 6.714844 59.960938 6.5 " fill-opacity="1" fill-rule="nonzero"/><path fill="#ff6561" d="M 47.058594 9.0625 C 46.972656 8.324219 46.945312 7.710938 46.964844 7.21875 C 48.640625 6.546875 50.890625 5.671875 52.609375 5.113281 C 54.269531 5.007812 56.488281 4.886719 58.152344 4.890625 C 58.132812 5.363281 58.164062 5.953125 58.242188 6.664062 C 56.59375 7.25 54.402344 8.054688 52.796875 8.753906 C 51.074219 8.808594 48.773438 8.898438 47.058594 9.0625 " fill-opacity="1" fill-rule="nonzero"/><path fill="#ff6561" d="M 34.886719 14.636719 C 34.804688 13.90625 34.773438 13.296875 34.796875 12.808594 C 36.308594 11.753906 38.339844 10.355469 39.917969 9.398438 C 41.511719 8.875 43.644531 8.195312 45.273438 7.789062 C 45.25 8.28125 45.28125 8.898438 45.363281 9.636719 C 43.765625 10.640625 41.640625 11.996094 40.109375 13.09375 C 38.53125 13.519531 36.429688 14.101562 34.886719 14.636719 " fill-opacity="1" fill-rule="nonzero"/><path fill="#ff6561" d="M 24.832031 22.542969 C 24.757812 21.867188 24.730469 21.300781 24.746094 20.847656 C 25.960938 19.511719 27.59375 17.738281 28.886719 16.476562 C 30.199219 15.625 31.957031 14.5 33.332031 13.75 C 33.3125 14.234375 33.339844 14.835938 33.421875 15.5625 C 32.089844 16.871094 30.324219 18.628906 29.066406 20.011719 C 27.777344 20.734375 26.0625 21.71875 24.832031 22.542969 " fill-opacity="1" fill-rule="nonzero"/><path fill="#ff6561" d="M 17.183594 32.269531 C 17.117188 31.679688 17.09375 31.1875 17.109375 30.792969 C 18 29.253906 19.199219 27.207031 20.171875 25.722656 C 21.167969 24.601562 22.511719 23.113281 23.589844 22.070312 C 23.570312 22.515625 23.601562 23.074219 23.675781 23.742188 C 22.644531 25.269531 21.285156 27.3125 20.332031 28.890625 C 19.359375 29.875 18.070312 31.203125 17.183594 32.269531 " fill-opacity="1" fill-rule="nonzero"/><path fill="#ff6561" d="M 12.15625 43.308594 C 12.101562 42.839844 12.082031 42.449219 12.097656 42.132812 C 12.632812 40.46875 13.359375 38.25 13.984375 36.613281 C 14.640625 35.28125 15.535156 33.511719 16.289062 32.226562 C 16.273438 32.613281 16.296875 33.09375 16.363281 33.667969 C 15.660156 35.328125 14.738281 37.550781 14.117188 39.246094 C 13.496094 40.445312 12.679688 42.058594 12.15625 43.308594 " fill-opacity="1" fill-rule="nonzero"/><g clip-path="url(#id3)"><path fill="#ff6561" d="M 9.960938 55.167969 C 9.925781 54.847656 9.910156 54.578125 9.921875 54.363281 L 9.953125 53.796875 L 10.183594 51.234375 L 10.648438 47.988281 C 10.929688 46.703125 11.289062 44.984375 11.640625 43.714844 C 11.628906 44.019531 11.648438 44.394531 11.695312 44.847656 C 11.351562 46.566406 10.902344 48.859375 10.640625 50.589844 C 10.398438 51.960938 10.101562 53.789062 9.960938 55.167969 " fill-opacity="1" fill-rule="nonzero"/></g><path fill="#ff6561" d="M 109.214844 29.847656 C 109.207031 29.820312 109.203125 29.789062 109.195312 29.761719 C 109.15625 29.589844 109.125 29.429688 109.097656 29.289062 C 109.980469 30.597656 111.144531 32.351562 111.9375 33.714844 L 113.539062 36.949219 L 112.027344 34.15625 C 111.203125 32.851562 109.84375 31.261719 109.214844 29.847656 " fill-opacity="1" fill-rule="nonzero"/><path fill="#ff6561" d="M 101.101562 21.671875 C 101.085938 21.605469 101.070312 21.542969 101.054688 21.476562 C 100.964844 21.078125 100.890625 20.714844 100.835938 20.394531 C 101.996094 21.320312 103.535156 22.574219 104.625 23.585938 C 105.695312 24.890625 107.117188 26.636719 108.132812 27.988281 C 108.160156 28.152344 108.199219 28.339844 108.246094 28.542969 C 108.253906 28.578125 108.261719 28.609375 108.269531 28.644531 C 107.324219 27.679688 106.050781 26.402344 105.027344 25.523438 C 103.863281 24.355469 101.921875 23.105469 101.101562 21.671875 " fill-opacity="1" fill-rule="nonzero"/><path fill="#ff6561" d="M 91.027344 15.667969 C 91.003906 15.570312 90.980469 15.46875 90.960938 15.375 C 90.824219 14.777344 90.714844 14.234375 90.628906 13.75 C 92.003906 14.289062 93.828125 15.023438 95.152344 15.667969 C 96.496094 16.761719 98.28125 18.230469 99.578125 19.378906 C 99.640625 19.722656 99.71875 20.109375 99.816406 20.539062 C 99.832031 20.605469 99.847656 20.675781 99.863281 20.746094 C 98.671875 20.167969 97.074219 19.414062 95.835938 18.949219 C 94.402344 17.949219 92.027344 17.101562 91.027344 15.667969 " fill-opacity="1" fill-rule="nonzero"/><path fill="#ff6561" d="M 79.515625 11.988281 C 79.484375 11.863281 79.457031 11.738281 79.429688 11.617188 C 79.253906 10.851562 79.117188 10.164062 79.007812 9.546875 C 80.523438 9.683594 82.546875 9.886719 84.046875 10.144531 C 85.589844 10.996094 87.648438 12.140625 89.160156 13.050781 C 89.246094 13.550781 89.359375 14.113281 89.5 14.734375 C 89.523438 14.835938 89.546875 14.9375 89.570312 15.042969 C 88.195312 14.859375 86.351562 14.636719 84.964844 14.578125 C 83.335938 13.785156 81.164062 12.734375 79.515625 11.988281 " fill-opacity="1" fill-rule="nonzero"/><path fill="#ff6561" d="M 67.074219 10.800781 C 67.042969 10.652344 67.007812 10.507812 66.976562 10.363281 C 66.777344 9.480469 66.613281 8.679688 66.488281 7.964844 C 68.082031 7.699219 70.210938 7.363281 71.824219 7.21875 C 73.5 7.78125 75.734375 8.546875 77.386719 9.183594 C 77.5 9.8125 77.640625 10.519531 77.816406 11.300781 C 77.84375 11.429688 77.875 11.554688 77.90625 11.683594 C 76.40625 11.90625 74.40625 12.21875 72.925781 12.554688 C 71.179688 12.003906 68.84375 11.285156 67.074219 10.800781 " fill-opacity="1" fill-rule="nonzero"/><path fill="#ff6561" d="M 54.230469 12.257812 C 54.191406 12.097656 54.15625 11.941406 54.121094 11.785156 C 53.90625 10.824219 53.730469 9.957031 53.59375 9.179688 C 55.203125 8.511719 57.355469 7.632812 59.007812 7.070312 C 60.746094 7.304688 63.0625 7.636719 64.789062 7.960938 C 64.914062 8.6875 65.078125 9.496094 65.28125 10.394531 C 65.316406 10.542969 65.351562 10.6875 65.382812 10.835938 C 63.824219 11.457031 61.753906 12.300781 60.238281 13.019531 C 58.441406 12.765625 56.039062 12.433594 54.230469 12.257812 " fill-opacity="1" fill-rule="nonzero"/><path fill="#ff6561" d="M 41.515625 16.507812 C 41.476562 16.34375 41.441406 16.183594 41.40625 16.027344 C 41.183594 15.046875 41.003906 14.164062 40.867188 13.371094 C 42.417969 12.296875 44.503906 10.878906 46.117188 9.898438 C 47.84375 9.761719 50.148438 9.59375 51.878906 9.5625 C 52.015625 10.34375 52.195312 11.214844 52.414062 12.183594 C 52.445312 12.339844 52.484375 12.496094 52.519531 12.65625 C 50.96875 13.667969 48.90625 15.035156 47.410156 16.128906 C 45.640625 16.207031 43.277344 16.332031 41.515625 16.507812 " fill-opacity="1" fill-rule="nonzero"/><path fill="#ff6561" d="M 30.324219 23.148438 C 30.289062 22.992188 30.253906 22.839844 30.21875 22.6875 C 30.007812 21.75 29.835938 20.902344 29.703125 20.144531 C 30.988281 18.777344 32.71875 16.964844 34.078125 15.675781 C 35.621094 15.175781 37.6875 14.53125 39.261719 14.140625 C 39.398438 14.929688 39.578125 15.8125 39.796875 16.789062 C 39.835938 16.945312 39.871094 17.105469 39.910156 17.269531 C 38.515625 18.605469 36.671875 20.398438 35.347656 21.804688 C 33.832031 22.175781 31.8125 22.679688 30.324219 23.148438 " fill-opacity="1" fill-rule="nonzero"/><path fill="#ff6561" d="M 21.390625 31.578125 C 21.355469 31.4375 21.324219 31.296875 21.292969 31.160156 C 21.105469 30.316406 20.949219 29.554688 20.828125 28.871094 C 21.8125 27.304688 23.136719 25.222656 24.199219 23.707031 C 25.433594 22.917969 27.09375 21.882812 28.390625 21.199219 C 28.523438 21.949219 28.691406 22.789062 28.902344 23.71875 C 28.933594 23.867188 28.96875 24.019531 29.007812 24.171875 C 27.894531 25.71875 26.421875 27.789062 25.375 29.382812 C 24.160156 30.007812 22.546875 30.851562 21.390625 31.578125 " fill-opacity="1" fill-rule="nonzero"/><path fill="#ff6561" d="M 14.925781 41.335938 C 14.898438 41.21875 14.871094 41.101562 14.847656 40.988281 C 14.6875 40.285156 14.558594 39.648438 14.457031 39.078125 C 15.117188 37.390625 16.003906 35.144531 16.742188 33.492188 C 17.636719 32.460938 18.851562 31.097656 19.835938 30.152344 C 19.953125 30.820312 20.105469 31.570312 20.292969 32.398438 C 20.320312 32.53125 20.351562 32.667969 20.382812 32.804688 C 19.574219 34.472656 18.503906 36.699219 17.757812 38.398438 C 16.878906 39.25 15.71875 40.402344 14.925781 41.335938 " fill-opacity="1" fill-rule="nonzero"/><path fill="#ff6561" d="M 11.15625 51.960938 C 11.136719 51.875 11.117188 51.785156 11.097656 51.703125 C 10.976562 51.175781 10.882812 50.699219 10.808594 50.273438 C 11.113281 48.546875 11.53125 46.242188 11.917969 44.53125 C 12.449219 43.308594 13.175781 41.6875 13.8125 40.515625 C 13.910156 41.070312 14.035156 41.6875 14.1875 42.367188 C 14.214844 42.480469 14.238281 42.589844 14.265625 42.703125 C 13.777344 44.40625 13.140625 46.679688 12.71875 48.402344 C 12.214844 49.453125 11.554688 50.863281 11.15625 51.960938 " fill-opacity="1" fill-rule="nonzero"/><g clip-path="url(#id4)"><path fill="#ff6561" d="M 10.300781 62.996094 C 10.289062 62.941406 10.277344 62.890625 10.261719 62.839844 C 10.191406 62.523438 10.132812 62.238281 10.089844 61.980469 C 10.015625 60.289062 9.929688 58.027344 9.941406 56.332031 C 10.085938 54.972656 10.292969 53.15625 10.539062 51.808594 C 10.609375 52.210938 10.699219 52.664062 10.8125 53.164062 C 10.832031 53.246094 10.851562 53.328125 10.871094 53.410156 C 10.726562 55.070312 10.550781 57.285156 10.484375 58.953125 C 10.390625 60.164062 10.289062 61.78125 10.300781 62.996094 " fill-opacity="1" fill-rule="nonzero"/></g><path fill="#ff6561" d="M 112.539062 35.179688 C 112.519531 35.105469 112.5 35.035156 112.480469 34.96875 L 113.539062 36.949219 L 112.539062 35.179688 " fill-opacity="1" fill-rule="nonzero"/><path fill="#ff6561" d="M 106.074219 27.625 C 105.949219 27.199219 105.835938 26.792969 105.734375 26.414062 C 106.707031 27.316406 107.988281 28.539062 108.875 29.523438 C 109.753906 30.769531 110.914062 32.4375 111.734375 33.71875 C 111.761719 33.832031 111.796875 33.949219 111.832031 34.070312 C 111.109375 33.152344 110.128906 31.9375 109.3125 31.097656 C 108.355469 30.042969 106.792969 28.855469 106.074219 27.625 " fill-opacity="1" fill-rule="nonzero"/><path fill="#ff6561" d="M 97.34375 21.996094 C 97.125 21.253906 96.925781 20.546875 96.75 19.882812 C 97.949219 20.378906 99.542969 21.058594 100.6875 21.667969 C 101.894531 22.78125 103.492188 24.273438 104.660156 25.425781 C 104.769531 25.847656 104.894531 26.292969 105.035156 26.765625 C 104.039062 26.238281 102.703125 25.546875 101.65625 25.136719 C 100.371094 24.183594 98.273438 23.300781 97.34375 21.996094 " fill-opacity="1" fill-rule="nonzero"/><path fill="#ff6561" d="M 86.847656 18.398438 C 86.546875 17.382812 86.277344 16.417969 86.039062 15.511719 C 87.402344 15.605469 89.21875 15.75 90.566406 15.964844 C 92.03125 16.914062 93.980469 18.183594 95.417969 19.175781 C 95.601562 19.871094 95.808594 20.617188 96.039062 21.398438 C 94.832031 21.265625 93.214844 21.105469 92 21.09375 C 90.460938 20.273438 88.402344 19.1875 86.847656 18.398438 " fill-opacity="1" fill-rule="nonzero"/><path fill="#ff6561" d="M 75.089844 16.941406 C 74.730469 15.710938 74.402344 14.539062 74.113281 13.441406 C 75.582031 13.140625 77.542969 12.753906 79.027344 12.566406 C 80.679688 13.308594 82.882812 14.308594 84.515625 15.101562 C 84.761719 16.035156 85.039062 17.03125 85.347656 18.082031 C 83.988281 18.339844 82.175781 18.703125 80.839844 19.066406 C 79.121094 18.414062 76.824219 17.554688 75.089844 16.941406 " fill-opacity="1" fill-rule="nonzero"/><path fill="#ff6561" d="M 49.808594 20.878906 C 49.382812 19.421875 48.996094 18.042969 48.65625 16.75 C 50.164062 15.683594 52.179688 14.277344 53.742188 13.296875 C 55.554688 13.496094 57.976562 13.769531 59.78125 14.046875 C 60.109375 15.289062 60.476562 16.613281 60.886719 18.011719 C 59.40625 19.007812 57.4375 20.351562 56.007812 21.421875 C 54.152344 21.234375 51.671875 20.992188 49.808594 20.878906 " fill-opacity="1" fill-rule="nonzero"/><path fill="#ff6561" d="M 37.609375 26.320312 C 37.1875 24.882812 36.808594 23.519531 36.46875 22.238281 C 37.824219 20.855469 39.644531 19.023438 41.066406 17.710938 C 42.835938 17.566406 45.195312 17.390625 46.96875 17.339844 C 47.308594 18.636719 47.695312 20.019531 48.125 21.476562 C 46.675781 22.800781 44.757812 24.578125 43.371094 25.964844 C 41.640625 26.046875 39.335938 26.164062 37.609375 26.320312 " fill-opacity="1" fill-rule="nonzero"/><path fill="#ff6561" d="M 27.367188 33.414062 C 26.972656 32.078125 26.617188 30.808594 26.304688 29.617188 C 27.386719 28.039062 28.839844 25.949219 29.984375 24.421875 C 31.480469 23.996094 33.476562 23.449219 34.996094 23.117188 C 35.332031 24.390625 35.710938 25.746094 36.128906 27.175781 C 34.925781 28.699219 33.332031 30.738281 32.183594 32.304688 C 30.734375 32.605469 28.796875 33.023438 27.367188 33.414062 " fill-opacity="1" fill-rule="nonzero"/><path fill="#ff6561" d="M 19.386719 41.722656 C 19.046875 40.558594 18.738281 39.457031 18.464844 38.417969 C 19.25 36.734375 20.308594 34.496094 21.15625 32.84375 C 22.328125 32.171875 23.902344 31.289062 25.125 30.710938 C 25.433594 31.886719 25.785156 33.136719 26.171875 34.457031 C 25.242188 36.082031 24.007812 38.257812 23.128906 39.914062 C 21.992188 40.421875 20.476562 41.117188 19.386719 41.722656 " fill-opacity="1" fill-rule="nonzero"/><path fill="#ff6561" d="M 13.910156 50.835938 C 13.636719 49.90625 13.390625 49.03125 13.175781 48.203125 C 13.640625 46.496094 14.273438 44.21875 14.800781 42.53125 C 15.613281 41.644531 16.714844 40.472656 17.609375 39.667969 C 17.878906 40.679688 18.175781 41.757812 18.511719 42.894531 C 17.871094 44.539062 17.027344 46.738281 16.441406 48.402344 C 15.652344 49.101562 14.613281 50.050781 13.910156 50.835938 " fill-opacity="1" fill-rule="nonzero"/><path fill="#ff6561" d="M 11.167969 60.34375 C 10.980469 59.707031 10.808594 59.101562 10.664062 58.535156 C 10.78125 56.878906 10.953125 54.671875 11.144531 53.027344 C 11.566406 51.96875 12.148438 50.5625 12.675781 49.554688 C 12.886719 50.347656 13.121094 51.191406 13.382812 52.082031 C 13.054688 53.667969 12.628906 55.78125 12.359375 57.378906 C 11.960938 58.25 11.449219 59.425781 11.167969 60.34375 " fill-opacity="1" fill-rule="nonzero"/><path fill="#ff6561" d="M 11.394531 69.839844 C 11.304688 69.535156 11.222656 69.242188 11.152344 68.972656 C 10.898438 67.449219 10.578125 65.410156 10.40625 63.875 C 10.414062 62.6875 10.433594 61.105469 10.550781 59.925781 C 10.6875 60.453125 10.847656 61.019531 11.019531 61.613281 C 11.027344 63.0625 11.046875 64.996094 11.125 66.445312 C 11.167969 67.464844 11.246094 68.828125 11.394531 69.839844 " fill-opacity="1" fill-rule="nonzero"/><path fill="#ff6561" d="M 11.796875 71.648438 L 11.5625 70.78125 L 11.453125 70.339844 C 11.515625 70.570312 11.582031 70.816406 11.660156 71.074219 L 12.082031 72.648438 C 11.996094 72.347656 11.878906 71.949219 11.796875 71.648438 " fill-opacity="1" fill-rule="nonzero"/><path fill="#ff6561" d="M 109.996094 32.523438 C 109.898438 32.222656 109.804688 31.933594 109.71875 31.65625 C 110.480469 32.507812 111.476562 33.664062 112.148438 34.589844 L 113.539062 36.949219 L 112.371094 35.28125 C 111.671875 34.441406 110.550781 33.464844 109.996094 32.523438 " fill-opacity="1" fill-rule="nonzero"/><path fill="#ff6561" d="M 102.894531 27.8125 C 102.667969 27.125 102.453125 26.460938 102.253906 25.824219 C 103.261719 26.261719 104.601562 26.863281 105.554688 27.414062 C 106.558594 28.410156 107.894531 29.746094 108.863281 30.777344 C 108.964844 31.105469 109.074219 31.445312 109.191406 31.796875 C 108.414062 31.351562 107.363281 30.765625 106.527344 30.4375 C 105.445312 29.640625 103.699219 28.890625 102.894531 27.8125 " fill-opacity="1" fill-rule="nonzero"/><path fill="#ff6561" d="M 93.714844 24.859375 C 93.375 23.832031 93.054688 22.835938 92.757812 21.882812 C 93.949219 21.921875 95.542969 21.988281 96.726562 22.152344 C 98.046875 23.050781 99.804688 24.257812 101.101562 25.191406 C 101.3125 25.871094 101.542969 26.582031 101.785156 27.316406 C 100.765625 27.261719 99.394531 27.207031 98.375 27.273438 C 96.980469 26.539062 94.742188 26.050781 93.714844 24.859375 " fill-opacity="1" fill-rule="nonzero"/><path fill="#ff6561" d="M 82.941406 23.707031 C 82.507812 22.398438 82.097656 21.132812 81.71875 19.917969 C 83.046875 19.574219 84.820312 19.128906 86.167969 18.898438 C 87.734375 19.667969 89.820312 20.703125 91.371094 21.507812 C 91.679688 22.5 92.011719 23.53125 92.367188 24.601562 C 91.164062 24.925781 89.5625 25.378906 88.390625 25.804688 C 86.761719 25.167969 84.582031 24.324219 82.941406 23.707031 " fill-opacity="1" fill-rule="nonzero"/><path fill="#ff6561" d="M 71.058594 24.410156 C 70.550781 22.886719 70.078125 21.417969 69.640625 20.007812 C 71.046875 19.300781 72.929688 18.367188 74.375 17.753906 C 76.117188 18.355469 78.4375 19.167969 80.167969 19.808594 C 80.554688 21.054688 80.972656 22.351562 81.417969 23.695312 C 80.09375 24.378906 78.335938 25.308594 77.054688 26.070312 C 75.257812 25.5625 72.863281 24.886719 71.058594 24.410156 " fill-opacity="1" fill-rule="nonzero"/><path fill="#ff6561" d="M 58.546875 27.011719 C 57.996094 25.359375 57.484375 23.765625 57.007812 22.234375 C 58.445312 21.1875 60.367188 19.796875 61.855469 18.816406 C 63.695312 19.207031 66.152344 19.734375 67.984375 20.175781 C 68.429688 21.609375 68.910156 23.101562 69.421875 24.644531 C 68.03125 25.660156 66.1875 27.019531 64.839844 28.09375 C 62.953125 27.753906 60.4375 27.304688 58.546875 27.011719 " fill-opacity="1" fill-rule="nonzero"/><path fill="#ff6561" d="M 45.914062 31.546875 C 45.355469 29.863281 44.832031 28.238281 44.347656 26.679688 C 45.753906 25.316406 47.640625 23.503906 49.097656 22.195312 C 50.964844 22.320312 53.453125 22.5 55.316406 22.699219 C 55.792969 24.234375 56.3125 25.839844 56.863281 27.5 C 55.457031 28.808594 53.589844 30.554688 52.226562 31.90625 C 50.332031 31.777344 47.808594 31.617188 45.914062 31.546875 " fill-opacity="1" fill-rule="nonzero"/><path fill="#ff6561" d="M 25.183594 44.550781 C 24.703125 43.101562 24.25 41.695312 23.832031 40.351562 C 24.738281 38.710938 25.957031 36.523438 26.917969 34.910156 C 28.34375 34.554688 30.25 34.09375 31.691406 33.824219 C 32.152344 35.304688 32.648438 36.847656 33.179688 38.441406 C 32.140625 40.027344 30.761719 42.144531 29.765625 43.757812 C 28.386719 43.96875 26.546875 44.261719 25.183594 44.550781 " fill-opacity="1" fill-rule="nonzero"/><path fill="#ff6561" d="M 18.09375 52.164062 C 17.691406 50.953125 17.3125 49.78125 16.964844 48.660156 C 17.585938 47.007812 18.421875 44.808594 19.089844 43.175781 C 20.179688 42.613281 21.644531 41.882812 22.78125 41.414062 C 23.191406 42.734375 23.632812 44.109375 24.109375 45.535156 C 23.328125 47.113281 22.296875 49.226562 21.554688 50.824219 C 20.503906 51.195312 19.105469 51.699219 18.09375 52.164062 " fill-opacity="1" fill-rule="nonzero"/><path fill="#ff6561" d="M 13.523438 60.046875 C 13.222656 59.144531 12.941406 58.269531 12.679688 57.433594 C 12.988281 55.851562 13.410156 53.742188 13.769531 52.171875 C 14.480469 51.433594 15.449219 50.457031 16.242188 49.804688 C 16.582031 50.890625 16.945312 52.027344 17.335938 53.199219 C 16.835938 54.699219 16.175781 56.699219 15.714844 58.210938 C 15.03125 58.730469 14.125 59.4375 13.523438 60.046875 " fill-opacity="1" fill-rule="nonzero"/><path fill="#ff6561" d="M 11.722656 67.859375 C 11.542969 67.316406 11.375 66.789062 11.214844 66.285156 C 11.183594 64.851562 11.15625 62.9375 11.195312 61.5 C 11.492188 60.621094 11.90625 59.445312 12.316406 58.609375 C 12.566406 59.40625 12.832031 60.238281 13.117188 61.097656 C 12.917969 62.441406 12.65625 64.230469 12.507812 65.582031 C 12.230469 66.25 11.882812 67.15625 11.722656 67.859375 " fill-opacity="1" fill-rule="nonzero"/><path fill="#ff6561" d="M 12.636719 74.402344 C 12.527344 74.074219 12.386719 73.636719 12.28125 73.308594 L 12.199219 73.03125 L 11.597656 70.757812 C 11.457031 69.769531 11.28125 68.445312 11.246094 67.449219 C 11.390625 67.90625 11.542969 68.382812 11.707031 68.875 C 11.828125 70 12 71.496094 12.195312 72.609375 C 12.324219 73.148438 12.464844 73.875 12.636719 74.402344 " fill-opacity="1" fill-rule="nonzero"/><path fill="#ff6561" d="M 112.839844 36.078125 C 112.804688 35.984375 112.773438 35.890625 112.742188 35.800781 L 113.539062 36.949219 L 112.839844 36.078125 " fill-opacity="1" fill-rule="nonzero"/><path fill="#ff6561" d="M 107.769531 32.734375 C 107.574219 32.191406 107.386719 31.664062 107.207031 31.144531 C 107.992188 31.5 109.035156 31.996094 109.753906 32.46875 C 110.488281 33.242188 111.464844 34.277344 112.160156 35.089844 C 112.210938 35.238281 112.265625 35.390625 112.320312 35.546875 C 111.792969 35.203125 111.074219 34.753906 110.484375 34.53125 C 109.675781 33.984375 108.378906 33.5 107.769531 32.734375 " fill-opacity="1" fill-rule="nonzero"/><path fill="#ff6561" d="M 100.296875 30.902344 C 99.957031 29.957031 99.628906 29.035156 99.320312 28.132812 C 100.3125 28.09375 101.636719 28.058594 102.625 28.144531 C 103.730469 28.890625 105.199219 29.882812 106.285156 30.652344 C 106.484375 31.222656 106.691406 31.808594 106.90625 32.402344 C 106.101562 32.445312 105.023438 32.527344 104.230469 32.683594 C 103.050781 32.148438 101.480469 31.433594 100.296875 30.902344 " fill-opacity="1" fill-rule="nonzero"/><path fill="#ff6561" d="M 90.882812 30.558594 C 90.417969 29.269531 89.972656 28.007812 89.546875 26.78125 C 90.703125 26.375 92.25 25.847656 93.433594 25.546875 C 94.84375 26.234375 96.722656 27.152344 98.121094 27.859375 C 98.449219 28.804688 98.792969 29.777344 99.148438 30.769531 C 98.132812 31.1875 96.785156 31.761719 95.808594 32.261719 C 94.332031 31.75 92.363281 31.066406 90.882812 30.558594 " fill-opacity="1" fill-rule="nonzero"/><path fill="#ff6561" d="M 68.066406 34.261719 C 67.433594 32.511719 66.828125 30.792969 66.25 29.125 C 67.59375 28.066406 69.390625 26.667969 70.78125 25.667969 C 72.589844 26.140625 75 26.773438 76.804688 27.273438 C 77.328125 28.792969 77.878906 30.351562 78.453125 31.945312 C 77.183594 33 75.492188 34.414062 74.261719 35.511719 C 72.402344 35.132812 69.925781 34.625 68.066406 34.261719 " fill-opacity="1" fill-rule="nonzero"/><path fill="#ff6561" d="M 43.320312 43.515625 C 42.660156 41.695312 42.03125 39.910156 41.429688 38.171875 C 42.6875 36.644531 44.371094 34.609375 45.679688 33.125 C 47.574219 33.214844 50.101562 33.34375 51.992188 33.484375 C 52.601562 35.246094 53.242188 37.054688 53.90625 38.898438 C 52.570312 40.394531 50.796875 42.398438 49.496094 43.925781 C 47.644531 43.792969 45.175781 43.617188 43.320312 43.515625 " fill-opacity="1" fill-rule="nonzero"/><path fill="#ff6561" d="M 32.675781 49.410156 C 32.0625 47.714844 31.476562 46.054688 30.917969 44.4375 C 31.945312 42.839844 33.324219 40.714844 34.390625 39.144531 C 36.050781 39.066406 38.265625 38.976562 39.925781 38.957031 C 40.523438 40.683594 41.148438 42.457031 41.804688 44.269531 C 40.664062 45.820312 39.148438 47.894531 38.039062 49.464844 C 36.429688 49.433594 34.285156 49.394531 32.675781 49.410156 " fill-opacity="1" fill-rule="nonzero"/><path fill="#ff6561" d="M 24.003906 55.632812 C 23.472656 54.160156 22.960938 52.714844 22.476562 51.3125 C 23.253906 49.726562 24.296875 47.617188 25.105469 46.046875 C 26.472656 45.804688 28.296875 45.496094 29.671875 45.324219 C 30.222656 46.917969 30.800781 48.550781 31.40625 50.222656 C 30.488281 51.742188 29.273438 53.773438 28.378906 55.304688 C 27.066406 55.382812 25.3125 55.492188 24.003906 55.632812 " fill-opacity="1" fill-rule="nonzero"/><path fill="#ff6561" d="M 13.691406 67.953125 C 13.402344 67.148438 13.121094 66.355469 12.855469 65.589844 C 13.054688 64.253906 13.332031 62.480469 13.578125 61.152344 C 14.203125 60.601562 15.050781 59.878906 15.746094 59.421875 C 16.121094 60.496094 16.511719 61.601562 16.917969 62.730469 C 16.511719 63.964844 15.972656 65.609375 15.589844 66.851562 C 15.003906 67.148438 14.21875 67.558594 13.691406 67.953125 " fill-opacity="1" fill-rule="nonzero"/><path fill="#ff6561" d="M 12.605469 73.492188 C 12.464844 73.105469 12.332031 72.726562 12.203125 72.355469 C 12.070312 71.253906 11.90625 69.78125 11.84375 68.675781 C 12.027344 68.015625 12.296875 67.128906 12.601562 66.515625 C 12.847656 67.234375 13.109375 67.972656 13.382812 68.722656 C 13.261719 69.71875 13.105469 71.042969 13.03125 72.039062 C 12.859375 72.460938 12.652344 73.039062 12.605469 73.492188 " fill-opacity="1" fill-rule="nonzero"/><path fill="#ff6561" d="M 13.023438 75.523438 C 12.933594 75.261719 12.8125 74.914062 12.722656 74.65625 L 12.347656 73.210938 C 12.453125 73.523438 12.570312 73.84375 12.6875 74.171875 C 12.824219 74.675781 12.96875 75.363281 13.144531 75.851562 L 13.023438 75.523438 " fill-opacity="1" fill-rule="nonzero"/><path fill="#ff6561" d="M 111.222656 35.917969 C 111.089844 35.570312 110.960938 35.230469 110.835938 34.894531 C 111.375 35.136719 112.097656 35.488281 112.570312 35.847656 L 113.539062 36.949219 L 112.878906 36.667969 C 112.382812 36.441406 111.597656 36.3125 111.222656 35.917969 " fill-opacity="1" fill-rule="nonzero"/><path fill="#ff6561" d="M 105.707031 35.605469 C 105.402344 34.8125 105.105469 34.027344 104.816406 33.253906 C 105.585938 33.113281 106.621094 32.9375 107.402344 32.914062 C 108.238281 33.414062 109.351562 34.082031 110.179688 34.59375 C 110.328125 34.992188 110.480469 35.394531 110.636719 35.800781 C 110.0625 35.972656 109.296875 36.226562 108.757812 36.496094 C 107.839844 36.234375 106.617188 35.882812 105.707031 35.605469 " fill-opacity="1" fill-rule="nonzero"/><path fill="#ff6561" d="M 97.925781 36.527344 C 97.46875 35.339844 97.023438 34.164062 96.59375 33.007812 C 97.558594 32.515625 98.851562 31.867188 99.855469 31.464844 C 101.050781 31.96875 102.648438 32.640625 103.84375 33.144531 C 104.152344 33.972656 104.46875 34.8125 104.796875 35.660156 C 103.988281 36.195312 102.917969 36.925781 102.152344 37.523438 C 100.882812 37.234375 99.191406 36.839844 97.925781 36.527344 " fill-opacity="1" fill-rule="nonzero"/><path fill="#ff6561" d="M 88.3125 38.585938 C 87.726562 37.074219 87.160156 35.574219 86.613281 34.101562 C 87.730469 33.285156 89.226562 32.210938 90.390625 31.460938 C 91.882812 31.945312 93.871094 32.59375 95.359375 33.078125 C 95.808594 34.28125 96.269531 35.503906 96.746094 36.738281 C 95.753906 37.59375 94.441406 38.742188 93.488281 39.640625 C 91.933594 39.332031 89.863281 38.914062 88.3125 38.585938 " fill-opacity="1" fill-rule="nonzero"/><path fill="#ff6561" d="M 77.292969 41.691406 C 76.617188 39.933594 75.957031 38.191406 75.320312 36.480469 C 76.546875 35.382812 78.191406 33.929688 79.460938 32.878906 C 81.175781 33.316406 83.464844 33.898438 85.179688 34.34375 C 85.742188 35.855469 86.324219 37.390625 86.921875 38.941406 C 85.789062 40.066406 84.289062 41.570312 83.191406 42.726562 C 81.421875 42.417969 79.0625 42.003906 77.292969 41.691406 " fill-opacity="1" fill-rule="nonzero"/><path fill="#ff6561" d="M 52.804688 50.640625 C 52.054688 48.699219 51.328125 46.773438 50.625 44.882812 C 51.9375 43.363281 53.691406 41.34375 55.035156 39.855469 C 56.976562 40.085938 59.570312 40.398438 61.511719 40.664062 C 62.207031 42.53125 62.925781 44.429688 63.664062 46.347656 C 62.375 47.84375 60.660156 49.839844 59.386719 51.347656 C 57.414062 51.132812 54.78125 50.84375 52.804688 50.640625 " fill-opacity="1" fill-rule="nonzero"/><path fill="#ff6561" d="M 31.128906 61.023438 C 30.484375 59.347656 29.855469 57.6875 29.25 56.054688 C 30.164062 54.535156 31.386719 52.507812 32.324219 51 C 33.921875 51.011719 36.050781 51.039062 37.648438 51.09375 C 38.316406 52.890625 39.007812 54.714844 39.71875 56.558594 C 38.6875 58.03125 37.3125 59.992188 36.289062 61.472656 C 34.742188 61.328125 32.679688 61.136719 31.128906 61.023438 " fill-opacity="1" fill-rule="nonzero"/><path fill="#ff6561" d="M 23.054688 65.910156 C 22.515625 64.511719 21.992188 63.128906 21.484375 61.765625 C 22.164062 60.359375 23.070312 58.484375 23.765625 57.085938 C 25.0625 56.984375 26.792969 56.863281 28.09375 56.820312 C 28.6875 58.421875 29.304688 60.050781 29.9375 61.691406 C 29.117188 63.027344 28.015625 64.804688 27.195312 66.140625 C 25.953125 66.058594 24.296875 65.949219 23.054688 65.910156 " fill-opacity="1" fill-rule="nonzero"/><path fill="#ff6561" d="M 17.226562 70.320312 C 16.824219 69.273438 16.433594 68.238281 16.054688 67.222656 C 16.46875 65.996094 17.023438 64.367188 17.460938 63.152344 C 18.402344 62.929688 19.664062 62.652344 20.621094 62.507812 C 21.113281 63.832031 21.621094 65.171875 22.144531 66.527344 C 21.550781 67.660156 20.761719 69.167969 20.164062 70.296875 C 19.285156 70.285156 18.109375 70.273438 17.226562 70.320312 " fill-opacity="1" fill-rule="nonzero"/><path fill="#ff6561" d="M 13.953125 74.039062 C 13.710938 73.410156 13.476562 72.789062 13.246094 72.175781 C 13.367188 71.199219 13.53125 69.894531 13.6875 68.921875 C 14.21875 68.585938 14.945312 68.15625 15.523438 67.914062 C 15.886719 68.882812 16.257812 69.863281 16.640625 70.855469 C 16.300781 71.726562 15.851562 72.882812 15.519531 73.753906 C 15.042969 73.8125 14.40625 73.894531 13.953125 74.039062 " fill-opacity="1" fill-rule="nonzero"/><path fill="#ff6561" d="M 13.488281 76.765625 L 13.339844 76.378906 L 13.214844 76.039062 C 13.058594 75.46875 12.835938 74.710938 12.730469 74.128906 C 12.796875 73.714844 12.898438 73.15625 13.085938 72.785156 C 13.292969 73.339844 13.507812 73.902344 13.726562 74.472656 C 13.664062 75.027344 13.582031 75.765625 13.5625 76.324219 C 13.515625 76.449219 13.453125 76.636719 13.488281 76.765625 " fill-opacity="1" fill-rule="nonzero"/><path fill="#ff6561" d="M 113.238281 37.113281 C 113.199219 37.011719 113.15625 36.910156 113.117188 36.808594 L 113.539062 36.949219 L 113.238281 37.113281 " fill-opacity="1" fill-rule="nonzero"/><path fill="#ff6561" d="M 110.046875 38.632812 C 109.808594 38.054688 109.574219 37.472656 109.347656 36.898438 C 109.859375 36.644531 110.546875 36.304688 111.097656 36.148438 C 111.597656 36.332031 112.269531 36.578125 112.777344 36.75 C 112.84375 36.914062 112.910156 37.082031 112.980469 37.25 C 112.671875 37.582031 112.273438 38.039062 112.003906 38.402344 C 111.421875 38.5 110.636719 38.605469 110.046875 38.632812 " fill-opacity="1" fill-rule="nonzero"/><path fill="#ff6561" d="M 96.300781 44.605469 C 95.738281 43.222656 95.183594 41.847656 94.640625 40.476562 C 95.574219 39.574219 96.828125 38.382812 97.804688 37.527344 C 99.074219 37.800781 100.769531 38.164062 102.042969 38.410156 C 102.460938 39.46875 102.890625 40.53125 103.324219 41.59375 C 102.542969 42.566406 101.507812 43.871094 100.753906 44.867188 C 99.417969 44.804688 97.636719 44.710938 96.300781 44.605469 " fill-opacity="1" fill-rule="nonzero"/><path fill="#ff6561" d="M 86.554688 48.714844 C 85.871094 47.042969 85.199219 45.371094 84.542969 43.710938 C 85.628906 42.554688 87.078125 41.015625 88.195312 39.890625 C 89.75 40.183594 91.828125 40.574219 93.390625 40.851562 C 93.949219 42.269531 94.519531 43.691406 95.101562 45.113281 C 94.144531 46.328125 92.871094 47.957031 91.9375 49.191406 C 90.320312 49.058594 88.167969 48.878906 86.554688 48.714844 " fill-opacity="1" fill-rule="nonzero"/><path fill="#ff6561" d="M 39.804688 67.882812 C 39.0625 66.070312 38.332031 64.257812 37.617188 62.453125 C 38.660156 60.980469 40.054688 59.019531 41.105469 57.554688 C 42.898438 57.746094 45.292969 58 47.085938 58.207031 C 47.847656 60.132812 48.625 62.070312 49.417969 64.007812 C 48.285156 65.457031 46.777344 67.386719 45.640625 68.832031 C 43.890625 68.546875 41.554688 68.167969 39.804688 67.882812 " fill-opacity="1" fill-rule="nonzero"/><path fill="#ff6561" d="M 22.519531 74.699219 C 22.007812 73.441406 21.5 72.1875 21.007812 70.9375 C 21.632812 69.820312 22.464844 68.332031 23.085938 67.210938 C 24.324219 67.296875 25.976562 67.417969 27.210938 67.539062 C 27.820312 69.070312 28.4375 70.609375 29.066406 72.148438 C 28.292969 73.195312 27.257812 74.585938 26.464844 75.613281 C 25.28125 75.332031 23.707031 74.960938 22.519531 74.699219 " fill-opacity="1" fill-rule="nonzero"/><path fill="#ff6561" d="M 17.085938 76.742188 C 16.730469 75.882812 16.382812 75.019531 16.042969 74.160156 C 16.417969 73.308594 16.910156 72.167969 17.28125 71.316406 C 18.160156 71.324219 19.332031 71.351562 20.207031 71.410156 C 20.683594 72.613281 21.167969 73.820312 21.660156 75.027344 C 21.109375 75.789062 20.367188 76.800781 19.785156 77.542969 C 18.976562 77.296875 17.898438 76.972656 17.085938 76.742188 " fill-opacity="1" fill-rule="nonzero"/><path fill="#ff6561" d="M 14.234375 77.710938 C 14.0625 77.296875 13.898438 76.882812 13.734375 76.46875 C 13.8125 75.929688 13.925781 75.210938 14.03125 74.675781 C 14.492188 74.605469 15.113281 74.527344 15.578125 74.523438 C 15.894531 75.324219 16.21875 76.128906 16.550781 76.9375 C 16.25 77.371094 15.84375 77.945312 15.511719 78.355469 C 15.128906 78.164062 14.523438 78.027344 14.234375 77.710938 " fill-opacity="1" fill-rule="nonzero"/><path fill="#ff6561" d="M 13.949219 77.925781 C 13.746094 77.417969 13.746094 77.417969 13.644531 77.164062 L 13.5625 76.953125 C 13.574219 76.882812 13.59375 76.789062 13.609375 76.71875 L 13.644531 76.699219 C 13.78125 77.046875 13.921875 77.398438 14.066406 77.75 C 14.039062 77.816406 14.035156 77.9375 13.972656 77.972656 L 13.949219 77.925781 " fill-opacity="1" fill-rule="nonzero"/><path fill="#ff6561" d="M 112.710938 39.554688 C 112.558594 39.210938 112.410156 38.859375 112.265625 38.507812 C 112.515625 38.136719 112.847656 37.632812 113.128906 37.285156 L 113.539062 36.949219 L 113.484375 38.121094 C 113.296875 38.574219 113.015625 39.175781 112.710938 39.554688 " fill-opacity="1" fill-rule="nonzero"/><path fill="#ff6561" d="M 109.125 43.960938 C 108.78125 43.164062 108.4375 42.363281 108.101562 41.558594 C 108.613281 40.84375 109.300781 39.894531 109.84375 39.203125 C 110.457031 39.125 111.273438 39.019531 111.867188 38.859375 C 112.039062 39.273438 112.214844 39.683594 112.390625 40.09375 C 112.09375 40.921875 111.699219 42.027344 111.402344 42.855469 C 110.734375 43.222656 109.832031 43.6875 109.125 43.960938 " fill-opacity="1" fill-rule="nonzero"/><path fill="#ff6561" d="M 103.042969 49.035156 C 102.527344 47.847656 102.015625 46.648438 101.511719 45.441406 C 102.246094 44.433594 103.230469 43.09375 103.996094 42.109375 C 105.003906 42.105469 106.351562 42.097656 107.359375 42.03125 C 107.71875 42.894531 108.082031 43.75 108.453125 44.601562 C 107.902344 45.707031 107.171875 47.183594 106.628906 48.296875 C 105.558594 48.546875 104.125 48.863281 103.042969 49.035156 " fill-opacity="1" fill-rule="nonzero"/><path fill="#ff6561" d="M 49.167969 75.480469 C 48.359375 73.617188 47.558594 71.734375 46.769531 69.847656 C 47.914062 68.402344 49.4375 66.476562 50.578125 65.03125 C 52.511719 65.292969 55.089844 65.636719 57.027344 65.882812 C 57.851562 67.851562 58.683594 69.808594 59.523438 71.75 C 58.320312 73.203125 56.710938 75.136719 55.496094 76.578125 C 53.597656 76.257812 51.0625 75.828125 49.167969 75.480469 " fill-opacity="1" fill-rule="nonzero"/><path fill="#ff6561" d="M 38.347656 78.679688 C 37.621094 77 36.902344 75.308594 36.191406 73.609375 C 37.179688 72.347656 38.496094 70.664062 39.472656 69.394531 C 41.214844 69.695312 43.539062 70.097656 45.28125 70.394531 C 46.066406 72.265625 46.859375 74.128906 47.65625 75.972656 C 46.574219 77.214844 45.128906 78.863281 44.023438 80.082031 C 42.320312 79.667969 40.046875 79.109375 38.347656 78.679688 " fill-opacity="1" fill-rule="nonzero"/><path fill="#ff6561" d="M 29.078125 80.648438 C 28.472656 79.246094 27.871094 77.832031 27.277344 76.414062 C 28.085938 75.394531 29.160156 74.027344 29.949219 72.992188 C 31.433594 73.300781 33.417969 73.71875 34.902344 74.039062 C 35.601562 75.703125 36.308594 77.367188 37.019531 79.011719 C 36.089844 79.988281 34.847656 81.289062 33.882812 82.234375 C 32.441406 81.761719 30.519531 81.128906 29.078125 80.648438 " fill-opacity="1" fill-rule="nonzero"/><path fill="#ff6561" d="M 21.726562 81.328125 C 21.273438 80.28125 20.824219 79.222656 20.382812 78.164062 C 20.980469 77.433594 21.769531 76.453125 22.339844 75.703125 C 23.511719 76 25.070312 76.398438 26.238281 76.710938 C 26.816406 78.082031 27.398438 79.453125 27.984375 80.8125 C 27.238281 81.484375 26.234375 82.375 25.445312 82.996094 C 24.328125 82.496094 22.585938 82.199219 21.726562 81.328125 " fill-opacity="1" fill-rule="nonzero"/><path fill="#ff6561" d="M 16.660156 80.664062 C 16.386719 80.035156 16.117188 79.398438 15.851562 78.761719 C 16.203125 78.367188 16.667969 77.828125 16.988281 77.40625 C 17.785156 77.675781 18.84375 78.035156 19.636719 78.3125 C 20.058594 79.320312 20.484375 80.320312 20.917969 81.316406 C 20.382812 81.648438 19.664062 82.089844 19.085938 82.339844 C 18.351562 81.84375 17.214844 81.351562 16.660156 80.664062 " fill-opacity="1" fill-rule="nonzero"/><path fill="#ff6561" d="M 14.332031 78.828125 L 14.277344 78.699219 C 14.207031 78.53125 14.109375 78.308594 14.039062 78.140625 C 14.105469 78.109375 14.1875 78.046875 14.230469 77.984375 C 14.59375 78.21875 15.078125 78.527344 15.445312 78.746094 C 15.6875 79.324219 15.933594 79.902344 16.179688 80.472656 C 15.875 80.445312 15.449219 80.378906 15.183594 80.226562 C 14.917969 79.8125 14.535156 79.273438 14.332031 78.828125 " fill-opacity="1" fill-rule="nonzero"/><path fill="#ff6561" d="M 113.6875 38.152344 C 113.644531 38.058594 113.601562 37.960938 113.558594 37.863281 L 113.539062 36.949219 L 113.6875 38.152344 " fill-opacity="1" fill-rule="nonzero"/><path fill="#ff6561" d="M 112.605469 44.535156 C 112.355469 43.992188 112.105469 43.441406 111.855469 42.878906 C 112.113281 42.03125 112.457031 40.902344 112.707031 40.050781 C 112.988281 39.605469 113.347656 38.984375 113.5 38.476562 C 113.574219 38.640625 113.644531 38.800781 113.71875 38.957031 C 113.722656 39.929688 113.71875 41.230469 113.679688 42.203125 C 113.402344 42.921875 113.007812 43.878906 112.605469 44.535156 " fill-opacity="1" fill-rule="nonzero"/><g clip-path="url(#id5)"><path fill="#ff6561" d="M 20.898438 85.542969 C 20.527344 84.734375 20.152344 83.910156 19.78125 83.074219 C 20.378906 82.8125 21.171875 82.441406 21.726562 82.097656 C 22.835938 82.636719 24.316406 83.355469 25.433594 83.882812 C 25.953125 85.050781 26.476562 86.203125 26.996094 87.332031 C 26.234375 87.582031 25.207031 87.902344 24.414062 88.039062 C 23.351562 87.300781 21.714844 86.546875 20.898438 85.542969 " fill-opacity="1" fill-rule="nonzero"/></g><path fill="#ff6561" d="M 16.0625 81.929688 C 15.882812 81.542969 15.707031 81.148438 15.527344 80.746094 C 15.851562 80.882812 16.308594 81.039062 16.65625 81.042969 C 17.375 81.597656 18.335938 82.328125 19.070312 82.851562 C 19.417969 83.632812 19.765625 84.402344 20.113281 85.15625 C 19.539062 85.019531 18.773438 84.8125 18.246094 84.554688 C 17.574219 83.78125 16.589844 82.808594 16.0625 81.929688 " fill-opacity="1" fill-rule="nonzero"/><path fill="#ff6561" d="M 14.648438 79.535156 C 14.578125 79.382812 14.488281 79.179688 14.421875 79.027344 C 14.640625 79.417969 14.914062 79.953125 15.164062 80.324219 C 15.316406 80.664062 15.46875 81 15.617188 81.328125 L 14.945312 80.183594 C 14.855469 79.988281 14.734375 79.730469 14.648438 79.535156 " fill-opacity="1" fill-rule="nonzero"/><g clip-path="url(#id6)"><path fill="#ff6561" d="M 114.265625 42.933594 C 114.125 42.652344 113.980469 42.355469 113.832031 42.039062 L 113.828125 42.03125 C 113.820312 41.035156 113.808594 39.707031 113.753906 38.710938 L 113.539062 36.949219 L 114.101562 39.429688 C 114.191406 40.480469 114.300781 41.882812 114.265625 42.933594 " fill-opacity="1" fill-rule="nonzero"/></g><g clip-path="url(#id7)"><path fill="#ff6561" d="M 114.109375 39 C 114.074219 38.9375 114.039062 38.867188 114 38.792969 L 113.539062 36.949219 L 114.109375 39 " fill-opacity="1" fill-rule="nonzero"/></g><g clip-path="url(#id8)"><path fill="#ff6561" d="M 114.402344 39.46875 C 114.382812 39.445312 114.359375 39.414062 114.335938 39.375 L 113.539062 36.949219 L 114.402344 39.46875 " fill-opacity="1" fill-rule="nonzero"/></g><g fill="#ff6561" fill-opacity="1"><g transform="translate(67.609293, 77.835601)"><g><path d="M 4.222656 -19.09375 C 2.699219 -19.09375 1.496094 -17.890625 1.496094 -16.371094 L 1.496094 -2.722656 C 1.496094 -1.203125 2.699219 0 4.222656 0 L 13.769531 0 C 15.289062 0 16.492188 -1.203125 16.492188 -2.722656 L 16.492188 -5.496094 L 12.542969 -5.496094 L 12.542969 -4.246094 C 12.542969 -3.828125 12.222656 -3.535156 11.804688 -3.535156 L 6.210938 -3.535156 C 5.792969 -3.535156 5.449219 -3.828125 5.449219 -4.246094 L 5.449219 -14.847656 C 5.449219 -15.265625 5.792969 -15.5625 6.210938 -15.5625 L 11.804688 -15.5625 C 12.222656 -15.5625 12.542969 -15.265625 12.542969 -14.847656 L 12.542969 -13.574219 L 16.492188 -13.574219 L 16.492188 -16.371094 C 16.492188 -17.890625 15.289062 -19.09375 13.769531 -19.09375 Z M 4.222656 -19.09375 "/></g></g></g><g fill="#ff6561" fill-opacity="1"><g transform="translate(90.532509, 77.835601)"><g><path d="M 1.496094 -19.09375 L 1.496094 0 L 5.449219 0 L 5.449219 -12.714844 L 9.472656 -2.722656 L 11.511719 -2.722656 L 15.535156 -12.714844 L 15.535156 0 L 19.488281 0 L 19.488281 -19.09375 L 15.535156 -19.09375 L 10.503906 -7.265625 L 5.449219 -19.09375 Z M 1.496094 -19.09375 "/></g></g></g><g fill="#ff6561" fill-opacity="1"><g transform="translate(116.670767, 77.835601)"><g><path d="M 1.496094 -19.09375 L 1.496094 -2.722656 C 1.496094 -1.25 2.75 0 4.222656 0 L 13.769531 0 C 15.242188 0 16.492188 -1.25 16.492188 -2.722656 L 16.492188 -19.09375 L 12.542969 -19.09375 L 12.542969 -4.246094 C 12.542969 -3.828125 12.222656 -3.535156 11.804688 -3.535156 L 6.210938 -3.535156 C 5.792969 -3.535156 5.449219 -3.828125 5.449219 -4.246094 L 5.449219 -19.09375 Z M 1.496094 -19.09375 "/></g></g></g><g fill="#ff6561" fill-opacity="1"><g transform="translate(139.81486, 77.835601)"><g><path d="M 1.496094 -19.09375 L 1.496094 0 L 5.449219 0 L 5.449219 -12.199219 L 12.542969 0 L 16.492188 0 L 16.492188 -19.09375 L 12.542969 -19.09375 L 12.542969 -6.898438 L 5.449219 -19.09375 Z M 1.496094 -19.09375 "/></g></g></g><g fill="#ff6561" fill-opacity="1"><g transform="translate(162.958958, 77.835601)"><g><path d="M 5.449219 -15.5625 L 10.773438 -15.5625 C 11.730469 -15.5625 12.542969 -14.773438 12.542969 -13.816406 L 12.542969 -5.253906 C 12.542969 -4.296875 11.730469 -3.535156 10.773438 -3.535156 L 5.449219 -3.535156 Z M 1.496094 -19.09375 L 1.496094 0 L 12.417969 0 C 14.652344 0 16.492188 -1.867188 16.492188 -4.097656 L 16.492188 -14.996094 C 16.492188 -17.230469 14.652344 -19.09375 12.417969 -19.09375 Z M 1.496094 -19.09375 "/></g></g></g><g fill="#ff6561" fill-opacity="1"><g transform="translate(186.103056, 77.835601)"><g><path d="M 4.222656 -19.09375 C 2.75 -19.09375 1.496094 -17.84375 1.496094 -16.371094 L 1.496094 -2.722656 C 1.496094 -1.25 2.75 0 4.222656 0 L 13.769531 0 C 15.242188 0 16.492188 -1.25 16.492188 -2.722656 L 16.492188 -16.371094 C 16.492188 -17.84375 15.242188 -19.09375 13.769531 -19.09375 Z M 6.210938 -15.5625 L 11.804688 -15.5625 C 12.222656 -15.5625 12.542969 -15.265625 12.542969 -14.847656 L 12.542969 -4.246094 C 12.542969 -3.828125 12.222656 -3.535156 11.804688 -3.535156 L 6.210938 -3.535156 C 5.792969 -3.535156 5.449219 -3.828125 5.449219 -4.246094 L 5.449219 -14.847656 C 5.449219 -15.265625 5.792969 -15.5625 6.210938 -15.5625 Z M 6.210938 -15.5625 "/></g></g></g><g fill="#ffffff" fill-opacity="1"><g transform="translate(85.907656, 92.701926)"><g><path d="M 6.4375 -2.4375 C 6.4375 -1.632812 6.144531 -1.003906 5.5625 -0.546875 C 4.976562 -0.0976562 4.179688 0.125 3.171875 0.125 C 2.085938 0.125 1.253906 -0.015625 0.671875 -0.296875 L 0.671875 -1.328125 C 1.046875 -1.171875 1.453125 -1.046875 1.890625 -0.953125 C 2.335938 -0.859375 2.78125 -0.8125 3.21875 -0.8125 C 3.925781 -0.8125 4.457031 -0.945312 4.8125 -1.21875 C 5.175781 -1.488281 5.359375 -1.863281 5.359375 -2.34375 C 5.359375 -2.65625 5.296875 -2.910156 5.171875 -3.109375 C 5.046875 -3.316406 4.832031 -3.503906 4.53125 -3.671875 C 4.226562 -3.847656 3.773438 -4.046875 3.171875 -4.265625 C 2.316406 -4.578125 1.703125 -4.941406 1.328125 -5.359375 C 0.960938 -5.773438 0.78125 -6.320312 0.78125 -7 C 0.78125 -7.707031 1.046875 -8.269531 1.578125 -8.6875 C 2.109375 -9.101562 2.8125 -9.3125 3.6875 -9.3125 C 4.601562 -9.3125 5.441406 -9.144531 6.203125 -8.8125 L 5.875 -7.875 C 5.113281 -8.195312 4.378906 -8.359375 3.671875 -8.359375 C 3.097656 -8.359375 2.648438 -8.234375 2.328125 -7.984375 C 2.015625 -7.742188 1.859375 -7.410156 1.859375 -6.984375 C 1.859375 -6.660156 1.914062 -6.394531 2.03125 -6.1875 C 2.15625 -5.988281 2.351562 -5.804688 2.625 -5.640625 C 2.90625 -5.472656 3.332031 -5.285156 3.90625 -5.078125 C 4.875 -4.734375 5.535156 -4.363281 5.890625 -3.96875 C 6.253906 -3.582031 6.4375 -3.070312 6.4375 -2.4375 Z M 6.4375 -2.4375 "/></g></g></g><g fill="#ffffff" fill-opacity="1"><g transform="translate(96.629103, 92.701926)"><g><path d="M 9.234375 -4.609375 C 9.234375 -3.140625 8.859375 -1.984375 8.109375 -1.140625 C 7.367188 -0.296875 6.335938 0.125 5.015625 0.125 C 3.660156 0.125 2.613281 -0.285156 1.875 -1.109375 C 1.144531 -1.941406 0.78125 -3.109375 0.78125 -4.609375 C 0.78125 -6.109375 1.148438 -7.269531 1.890625 -8.09375 C 2.628906 -8.914062 3.675781 -9.328125 5.03125 -9.328125 C 6.34375 -9.328125 7.367188 -8.90625 8.109375 -8.0625 C 8.859375 -7.226562 9.234375 -6.078125 9.234375 -4.609375 Z M 1.921875 -4.609375 C 1.921875 -3.359375 2.179688 -2.410156 2.703125 -1.765625 C 3.234375 -1.128906 4.003906 -0.8125 5.015625 -0.8125 C 6.035156 -0.8125 6.800781 -1.128906 7.3125 -1.765625 C 7.832031 -2.410156 8.09375 -3.359375 8.09375 -4.609375 C 8.09375 -5.835938 7.832031 -6.769531 7.3125 -7.40625 C 6.800781 -8.050781 6.039062 -8.375 5.03125 -8.375 C 4.007812 -8.375 3.234375 -8.050781 2.703125 -7.40625 C 2.179688 -6.757812 1.921875 -5.828125 1.921875 -4.609375 Z M 1.921875 -4.609375 "/></g></g></g><g fill="#ffffff" fill-opacity="1"><g transform="translate(110.307062, 92.701926)"><g><path d="M 1.265625 0 L 1.265625 -9.1875 L 2.328125 -9.1875 L 2.328125 -0.96875 L 6.375 -0.96875 L 6.375 0 Z M 1.265625 0 "/></g></g></g><g fill="#ffffff" fill-opacity="1"><g transform="translate(120.64561, 92.701926)"><g><path d="M 8.1875 -9.1875 L 8.1875 -3.234375 C 8.1875 -2.191406 7.867188 -1.367188 7.234375 -0.765625 C 6.609375 -0.171875 5.742188 0.125 4.640625 0.125 C 3.535156 0.125 2.679688 -0.175781 2.078125 -0.78125 C 1.472656 -1.382812 1.171875 -2.210938 1.171875 -3.265625 L 1.171875 -9.1875 L 2.234375 -9.1875 L 2.234375 -3.1875 C 2.234375 -2.425781 2.441406 -1.835938 2.859375 -1.421875 C 3.273438 -1.015625 3.890625 -0.8125 4.703125 -0.8125 C 5.484375 -0.8125 6.082031 -1.015625 6.5 -1.421875 C 6.914062 -1.835938 7.125 -2.429688 7.125 -3.203125 L 7.125 -9.1875 Z M 8.1875 -9.1875 "/></g></g></g><g fill="#ffffff" fill-opacity="1"><g transform="translate(133.670754, 92.701926)"><g><path d="M 4.09375 0 L 3.015625 0 L 3.015625 -8.234375 L 0.109375 -8.234375 L 0.109375 -9.1875 L 7 -9.1875 L 7 -8.234375 L 4.09375 -8.234375 Z M 4.09375 0 "/></g></g></g><g fill="#ffffff" fill-opacity="1"><g transform="translate(144.448701, 92.701926)"><g><path d="M 1.265625 0 L 1.265625 -9.1875 L 2.328125 -9.1875 L 2.328125 0 Z M 1.265625 0 "/></g></g></g><g fill="#ffffff" fill-opacity="1"><g transform="translate(151.698927, 92.701926)"><g><path d="M 9.234375 -4.609375 C 9.234375 -3.140625 8.859375 -1.984375 8.109375 -1.140625 C 7.367188 -0.296875 6.335938 0.125 5.015625 0.125 C 3.660156 0.125 2.613281 -0.285156 1.875 -1.109375 C 1.144531 -1.941406 0.78125 -3.109375 0.78125 -4.609375 C 0.78125 -6.109375 1.148438 -7.269531 1.890625 -8.09375 C 2.628906 -8.914062 3.675781 -9.328125 5.03125 -9.328125 C 6.34375 -9.328125 7.367188 -8.90625 8.109375 -8.0625 C 8.859375 -7.226562 9.234375 -6.078125 9.234375 -4.609375 Z M 1.921875 -4.609375 C 1.921875 -3.359375 2.179688 -2.410156 2.703125 -1.765625 C 3.234375 -1.128906 4.003906 -0.8125 5.015625 -0.8125 C 6.035156 -0.8125 6.800781 -1.128906 7.3125 -1.765625 C 7.832031 -2.410156 8.09375 -3.359375 8.09375 -4.609375 C 8.09375 -5.835938 7.832031 -6.769531 7.3125 -7.40625 C 6.800781 -8.050781 6.039062 -8.375 5.03125 -8.375 C 4.007812 -8.375 3.234375 -8.050781 2.703125 -7.40625 C 2.179688 -6.757812 1.921875 -5.828125 1.921875 -4.609375 Z M 1.921875 -4.609375 "/></g></g></g><g fill="#ffffff" fill-opacity="1"><g transform="translate(165.376888, 92.701926)"><g><path d="M 8.4375 0 L 7.21875 0 L 2.203125 -7.703125 L 2.140625 -7.703125 C 2.210938 -6.796875 2.25 -5.96875 2.25 -5.21875 L 2.25 0 L 1.265625 0 L 1.265625 -9.1875 L 2.46875 -9.1875 L 7.46875 -1.5 L 7.515625 -1.5 C 7.515625 -1.613281 7.5 -1.976562 7.46875 -2.59375 C 7.4375 -3.207031 7.425781 -3.644531 7.4375 -3.90625 L 7.4375 -9.1875 L 8.4375 -9.1875 Z M 8.4375 0 "/></g></g></g><g fill="#ffffff" fill-opacity="1"><g transform="translate(178.734711, 92.701926)"><g><path d="M 6.4375 -2.4375 C 6.4375 -1.632812 6.144531 -1.003906 5.5625 -0.546875 C 4.976562 -0.0976562 4.179688 0.125 3.171875 0.125 C 2.085938 0.125 1.253906 -0.015625 0.671875 -0.296875 L 0.671875 -1.328125 C 1.046875 -1.171875 1.453125 -1.046875 1.890625 -0.953125 C 2.335938 -0.859375 2.78125 -0.8125 3.21875 -0.8125 C 3.925781 -0.8125 4.457031 -0.945312 4.8125 -1.21875 C 5.175781 -1.488281 5.359375 -1.863281 5.359375 -2.34375 C 5.359375 -2.65625 5.296875 -2.910156 5.171875 -3.109375 C 5.046875 -3.316406 4.832031 -3.503906 4.53125 -3.671875 C 4.226562 -3.847656 3.773438 -4.046875 3.171875 -4.265625 C 2.316406 -4.578125 1.703125 -4.941406 1.328125 -5.359375 C 0.960938 -5.773438 0.78125 -6.320312 0.78125 -7 C 0.78125 -7.707031 1.046875 -8.269531 1.578125 -8.6875 C 2.109375 -9.101562 2.8125 -9.3125 3.6875 -9.3125 C 4.601562 -9.3125 5.441406 -9.144531 6.203125 -8.8125 L 5.875 -7.875 C 5.113281 -8.195312 4.378906 -8.359375 3.671875 -8.359375 C 3.097656 -8.359375 2.648438 -8.234375 2.328125 -7.984375 C 2.015625 -7.742188 1.859375 -7.410156 1.859375 -6.984375 C 1.859375 -6.660156 1.914062 -6.394531 2.03125 -6.1875 C 2.15625 -5.988281 2.351562 -5.804688 2.625 -5.640625 C 2.90625 -5.472656 3.332031 -5.285156 3.90625 -5.078125 C 4.875 -4.734375 5.535156 -4.363281 5.890625 -3.96875 C 6.253906 -3.582031 6.4375 -3.070312 6.4375 -2.4375 Z M 6.4375 -2.4375 "/></g></g></g></svg>